Coordinates
version=1
nRows=13
nColumns=38
inDegrees=no

Units are S.I. units (second, meters, Newtons, ...)
If the header above contains a line with 'inDegrees', this indicates whether rotational values are in degrees (yes) or radians (no).

endheader
time	pelvis_tilt	pelvis_list	pelvis_rotation	pelvis_tx	pelvis_ty	pelvis_tz	hip_flexion_r	hip_adduction_r	hip_rotation_r	knee_angle_r	ankle_angle_r	subtalar_angle_r	mtp_angle_r	hip_flexion_l	hip_adduction_l	hip_rotation_l	knee_angle_l	ankle_angle_l	subtalar_angle_l	mtp_angle_l	lumbar_extension	lumbar_bending	lumbar_rotation	arm_flex_r	arm_add_r	arm_rot_r	elbow_flex_r	pro_sup_r	wrist_flex_r	wrist_dev_r	arm_flex_l	arm_add_l	arm_rot_l	elbow_flex_l	pro_sup_l	wrist_flex_l	wrist_dev_l
0.51	-0.356855	1.33028	-1.13543	0.899678	1.20273	0.960633	0.25952	-0.0280494	-0.154143	0.673407	-0.239107	0	0	-0.334903	-0.107207	-0.310823	0.26972	-0.135791	0	0	-0.372252	0.100471	-0.228004	0.186357	-0.514771	1.25416	0.581436	0.311471	0	0	-0.0846626	-0.439009	-0.0070938	1.06369	1.5708	0	0
0.52	-0.35011	1.33421	-1.1399	0.899087	1.19367	0.959279	0.246664	-0.0282459	-0.14529	0.584538	-0.245474	0	0	-0.343801	-0.106301	-0.311404	0.268021	-0.130686	0	0	-0.369795	0.0979165	-0.227449	0.184766	-0.513455	1.25084	0.581256	0.311492	0	0	-0.0765912	-0.440427	-0.00295235	1.06956	1.5708	0	0
0.53	-0.343536	1.33838	-1.14443	0.898291	1.18441	0.957788	0.235758	-0.0294166	-0.145624	0.489772	-0.267215	0	0	-0.352768	-0.105754	-0.31297	0.266205	-0.124904	0	0	-0.366787	0.0950707	-0.226621	0.182295	-0.511889	1.24599	0.581255	0.312031	0	0	-0.0691077	-0.441609	0.00148838	1.07494	1.5708	0	0
0.54	-0.334228	1.34431	-1.15165	0.897401	1.17497	0.955961	0.220239	-0.0305854	-0.13463	0.392546	-0.277265	0	0	-0.359993	-0.103884	-0.314696	0.264716	-0.119675	0	0	-0.361849	0.0908357	-0.226309	0.179303	-0.510395	1.24159	0.581807	0.31309	0	0	-0.0636466	-0.442561	0.00446564	1.08058	1.5708	0	0
0.55	-0.322598	1.35121	-1.16147	0.896339	1.16532	0.953869	0.202896	-0.0327028	-0.119566	0.294121	-0.287115	0	0	-0.366251	-0.101221	-0.316883	0.263492	-0.114345	0	0	-0.355689	0.085514	-0.226135	0.17571	-0.508907	1.23661	0.583092	0.314175	0	0	-0.0600521	-0.443995	0.00713733	1.08667	1.5708	0	0
0.56	-0.308425	1.36012	-1.17405	0.895157	1.15546	0.951479	0.186663	-0.0376194	-0.103785	0.200293	-0.298432	0	0	-0.370306	-0.0975761	-0.318342	0.263267	-0.108871	0	0	-0.347138	0.078821	-0.226126	0.17137	-0.507316	1.23163	0.584418	0.315469	0	0	-0.0577655	-0.444669	0.00893568	1.0924	1.5708	0	0
0.57	-0.292748	1.36928	-1.18845	0.894059	1.14567	0.949085	0.187973	-0.0453397	-0.107538	0.169045	-0.273805	0	0	-0.373486	-0.0935852	-0.318984	0.264186	-0.103779	0	0	-0.338817	0.0722726	-0.225779	0.167795	-0.506094	1.22748	0.58575	0.316472	0	0	-0.0557165	-0.444799	0.0105252	1.09745	1.5708	0	0
0.58	-0.278261	1.37979	-1.20187	0.892418	1.13561	0.946462	0.180533	-0.0538511	-0.0966476	0.0992989	-0.274018	0	0	-0.37447	-0.0907116	-0.319487	0.267562	-0.0966399	0	0	-0.328294	0.0646524	-0.22528	0.163144	-0.50261	1.22268	0.584855	0.318345	0	0	-0.0553005	-0.445937	0.0121745	1.10253	1.5708	0	0
0.59	-0.265447	1.38898	-1.21405	0.890768	1.12555	0.944032	0.169748	-0.0593219	-0.0778088	0.0311476	-0.282297	0	0	-0.37602	-0.0886716	-0.320349	0.271979	-0.0901968	0	0	-0.319112	0.0582583	-0.224333	0.159367	-0.499142	1.21875	0.583325	0.320383	0	0	-0.0548722	-0.445882	0.0133995	1.1065	1.5708	0	0
0.6	-0.250815	1.39502	-1.22744	0.889549	1.11552	0.942024	0.164773	-0.0609966	-0.0861697	0	-0.283243	0	0	-0.380519	-0.08693	-0.320706	0.275654	-0.0875559	0	0	-0.313601	0.0541533	-0.223734	0.157363	-0.497937	1.2172	0.583717	0.321094	0	0	-0.054196	-0.44381	0.0136925	1.10934	1.5708	0	0
0.61	-0.237006	1.39983	-1.23933	0.88843	1.10554	0.940235	0.164434	-0.062112	-0.109542	0	-0.280199	0	0	-0.384987	-0.0861809	-0.319316	0.281124	-0.0825759	0	0	-0.309494	0.0511151	-0.223911	0.155733	-0.496338	1.21419	0.58327	0.32287	0	0	-0.053975	-0.441801	0.0139881	1.11156	1.5708	0	0
0.62	-0.227694	1.4024	-1.24604	0.887287	1.09558	0.938784	0.163814	-0.0619984	-0.130465	0	-0.275981	0	0	-0.390737	-0.087536	-0.317195	0.286826	-0.0804695	0	0	-0.307788	0.0500845	-0.224242	0.154563	-0.495019	1.21083	0.583331	0.324259	0	0	-0.0533042	-0.439772	0.0151678	1.11281	1.5708	0	0
0.63	-0.224935	1.40306	-1.24613	0.886016	1.08559	0.937662	0.16267	-0.0604164	-0.14298	0	-0.277252	0	0	-0.397517	-0.0910761	-0.315132	0.292884	-0.0803429	0	0	-0.307934	0.0510261	-0.224312	0.154306	-0.49364	1.20874	0.583141	0.324992	0	0	-0.0525217	-0.437358	0.0166402	1.11303	1.5708	0	0
